<svg id="Capa_1" enable-background="new 0 0 512 512" height="512" viewBox="0 0 512 512" width="512" xmlns="http://www.w3.org/2000/svg"><g><path d="m512 256.001c0 83.266-39.754 157.247-101.316 203.999h-241.086c-40.855 0-74.985-31.118-78.731-71.801-10.145-110.183-20.867-308.097-20.867-308.097 46.102-48.733 111.148-79.357 183.354-80.089 141.47-1.432 258.646 114.51 258.646 255.988z" fill="#40c1fa"/><path d="m275 70h-90c-8.284 0-15-6.716-15-15 0-8.284 6.716-15 15-15h90c8.284 0 15 6.716 15 15 0 8.284-6.716 15-15 15zm205 175c0-8.284-6.716-15-15-15h-90c-8.284 0-15 6.716-15 15 0 8.284 6.716 15 15 15h90c8.284 0 15-6.716 15-15zm10-70c0-8.284-6.716-15-15-15h-30c-8.284 0-15 6.716-15 15 0 8.284 6.716 15 15 15h30c8.284 0 15-6.716 15-15zm-130-40c0-8.284-6.716-15-15-15h-30c-8.284 0-15 6.716-15 15 0 8.284 6.716 15 15 15h30c8.284 0 15-6.716 15-15z" fill="#72d1fb"/><path d="m397 125v30c0 2.761-2.239 5-5 5s-5-2.239-5-5v-30c0-2.761 2.239-5 5-5s5 2.239 5 5zm48 57h-15c-2.761 0-5 2.239-5 5s2.239 5 5 5h15c2.761 0 5-2.239 5-5s-2.239-5-5-5zm-7.858-40.142c-1.953-1.953-5.118-1.953-7.071 0l-21.213 21.213c-1.953 1.952-1.953 5.118 0 7.071 1.953 1.953 5.118 1.953 7.071 0l21.213-21.213c1.953-1.952 1.953-5.118 0-7.071z" fill="#d5f1fe"/><path d="m302.853 450c34.392 0 39.485 49.534 5.821 56.575-17 3.556-34.618 5.425-52.674 5.425-63.831 0-122.205-23.361-167.039-62z" fill="#ffc14f"/><path d="m309.981 506.298c-3.941.846-8.021.846-11.962 0-.446-.096-.891-.192-1.336-.29-33.149-7.302-27.963-56.008 5.981-56.008h120.376c-31.828 27.429-70.478 47.159-113.059 56.298z" fill="#ffcd71"/><path d="m339.744 79.512-155.885 90c-4.783 2.762-10.899 1.123-13.66-3.66s-1.123-10.899 3.66-13.66l155.885-90c4.783-2.762 10.899-1.123 13.66 3.66s1.123 10.899-3.66 13.66z" fill="#ffc14f"/><path d="m413.414 70.606-120.06 92.05c-11.983 9.187-29.312 5.736-36.862-7.34l-34.092-59.05c-7.519-13.023-1.922-29.688 11.933-35.534l139.278-58.762c11.617-4.901 25.065-.385 31.369 10.534l14.874 25.762c6.274 10.868 3.519 24.704-6.44 32.34z" fill="#ffa90b"/><path d="m413.414 70.606-30.064 23.05c-21.499 16.483-52.592 10.292-66.137-13.169-13.49-23.365-3.449-53.267 21.409-63.754l34.989-14.763c11.617-4.901 25.065-.385 31.369 10.534l14.874 25.762c6.274 10.868 3.519 24.704-6.44 32.34z" fill="#ffc14f"/><path d="m322.423 89.512-43.301 25c-4.783 2.762-10.899 1.123-13.66-3.66s-1.123-10.899 3.66-13.66l43.301-25c4.783-2.762 10.899-1.123 13.66 3.66 2.762 4.783 1.123 10.899-3.66 13.66z" fill="#f76937"/><path d="m391.705 49.512-69.282 40c-4.783 2.762-10.899 1.123-13.66-3.66s-1.123-10.899 3.66-13.66l69.282-40c4.783-2.761 10.899-1.123 13.66 3.66 2.762 4.783 1.123 10.899-3.66 13.66z" fill="#f29500"/><path d="m511.993 361.993.007.007v48.692c0 5.523-4.477 10-10 10h-222c-5.523 0-10-4.477-10-10v-220c0-5.523 4.477-10 10-10h93.014c10.538 0 20.303 5.529 25.724 14.565l50.294 83.823c.639 1.065 1.471 2.002 2.453 2.763l48.879 37.842c3.591 2.78 6.454 6.297 8.441 10.252.445.885.637 13.817-.511 20.254-.767 4.303.608 8.711 3.699 11.802z" fill="#f44545"/><path d="m512 386v25c0 5.523-4.477 10-10 10h-222c-5.523 0-10-4.477-10-10v-25z" fill="#c83c50"/><path d="m280 168.692v252h-219.976c-37.45-44.517-60.024-101.964-60.024-164.692 0-11.977.824-23.761 2.418-35.299.035-.254.07-.507.106-.761 5.781-40.951 41.106-71.247 82.463-71.247h175.013c11.046-.001 20 8.954 20 19.999z" fill="#ffb52d"/><path d="m280 386v35h-219.976c-9.191-10.925-17.485-22.63-24.771-35z" fill="#ffa90b"/><path d="m117 320h-67c-5.523 0-10-4.477-10-10v-60c0-5.523 4.477-10 10-10h67c5.523 0 10 4.477 10 10v60c0 5.523-4.477 10-10 10z" fill="#51489a"/><path d="m240 320h-120c-22.091 0-40-17.909-40-40 0-22.091 17.909-40 40-40h120c5.523 0 10 4.477 10 10v60c0 5.523-4.477 10-10 10z" fill="#5f55af"/><path d="m419.114 310.692h-103.114c-3.314 0-6-2.686-6-6v-83c0-3.313 2.686-6 6-6h50.693c2.059 0 3.974 1.056 5.073 2.796l52.421 83c2.523 3.996-.348 9.204-5.073 9.204z" fill="#958fca"/><path d="m424.187 301.796c2.523 3.996-.348 9.204-5.073 9.204h-37.946c-30.311-20.539-48.168-45.751-48.168-73 0-7.506 1.355-14.858 3.952-22h29.741c2.059 0 3.974 1.056 5.073 2.796z" fill="#aba6d5"/><path d="m508.838 330c2.153 4.189 3.162 8.881 3.162 13.714v18.286h-36c-8.837 0-16-7.164-16-16 0-8.836 7.163-16 16-16z" fill="#fff36c"/><path d="m440 320h-40c-5.523 0-10-4.477-10-10 0-5.523 4.477-10 10-10h40c5.523 0 10 4.477 10 10 0 5.523-4.477 10-10 10z" fill="#842939"/><path d="m272.5 223.693c-16.569 0-30-13.431-30-30v-40h60v40c0 16.568-13.431 30-30 30z" fill="#c83c50"/><path d="m2.433 220.703c3.242-23.507 9.674-45.993 18.848-67.011h24.219v40c0 16.569-13.431 30-30 30-4.684 0-9.117-1.074-13.067-2.989z" fill="#c83c50"/><path d="m221.5 223.693c-16.569 0-30-13.431-30-30v-40h60v40c0 16.568-13.431 30-30 30z" fill="#f44545"/><path d="m171.5 223.693c-16.569 0-30-13.431-30-30v-40h60v40c0 16.568-13.431 30-30 30z" fill="#c83c50"/><path d="m318 153.692c0 6.075-4.925 11-11 11h-286.598c2.632-7.499 5.599-14.839 8.891-22h277.707c6.075 0 11 4.925 11 11z" fill="#842939"/><path d="m212 308.87-19-26.87h38z" fill="#ffcd71"/><path d="m207.982 274.896c.011.2.018.401.018.604 0 5.799-4.701 10.5-10.5 10.5s-10.5-4.701-10.5-10.5c0-5.296 3.921-9.675 9.018-10.396-.011-.2-.018-.401-.018-.604 0-5.799 4.701-10.5 10.5-10.5s10.5 4.701 10.5 10.5c0 5.296-3.921 9.675-9.018 10.396z" fill="#d5f1fe"/><path d="m236 275.5c0 5.799-4.701 10.5-10.5 10.5-2.938 0-5.594-1.208-7.5-3.152-1.906 1.945-4.562 3.152-7.5 3.152-5.799 0-10.5-4.701-10.5-10.5 0-4.592 2.948-8.495 7.055-9.921-.036-.355-.055-.715-.055-1.079 0-5.799 4.701-10.5 10.5-10.5s10.5 4.701 10.5 10.5c0 .267-.01.531-.03.793 4.607 1.111 8.03 5.259 8.03 10.207z" fill="#fff"/><path d="m133.5 311h-30c-4.142 0-7.5-3.358-7.5-7.5 0-4.142 3.358-7.5 7.5-7.5h30c4.142 0 7.5 3.358 7.5 7.5 0 4.142-3.358 7.5-7.5 7.5z" fill="#d5f1fe"/><path d="m136.803 306.41-21.213-21.213c-2.929-2.929-2.929-7.678 0-10.607 2.929-2.929 7.678-2.929 10.607 0l21.213 21.213c2.929 2.929 2.929 7.678 0 10.607-2.929 2.929-7.678 2.929-10.607 0z" fill="#ffa90b"/><path d="m260 319c0 6.075-4.925 11-11 11h-208c-6.075 0-11-4.925-11-11s4.925-11 11-11h208c6.075 0 11 4.925 11 11z" fill="#f44545"/><path d="m176.837 428.111c0 23.719-14.136 44.136-34.442 53.287-1.463.659-81.194-65.412-80.549-67.915 6.493-25.185 29.36-43.791 56.572-43.791 32.264 0 58.419 26.155 58.419 58.419zm214.744-58.419c-32.264 0-58.419 26.155-58.419 58.418 0 32.264 26.155 58.419 58.419 58.419s58.419-26.155 58.419-58.419c0-32.263-26.155-58.418-58.419-58.418z" fill="#5f55af"/><path d="m146.975 479.085c-2.878 1.616-5.907 2.996-9.061 4.112-29.734-15.486-56.43-36.812-77.89-62.197 3.43-28.994 28.478-51.308 58.394-51.308 9.902 0 19.229 2.464 27.401 6.812-4.565 2.562-8.86 5.783-12.743 9.667-22.814 22.814-22.814 59.803 0 82.617 4.21 4.209 8.902 7.642 13.899 10.297zm233.213-50.974c0-23.899 14.351-44.446 34.906-53.494-7.194-3.167-15.148-4.925-23.513-4.925-32.264 0-58.419 26.155-58.419 58.418 0 32.264 26.155 58.419 58.419 58.419 8.365 0 16.318-1.758 23.513-4.925-20.555-9.047-34.906-29.594-34.906-53.493z" fill="#51489a"/><path d="m140.326 428.111c0 12.099-9.808 21.907-21.907 21.907s-21.907-9.808-21.907-21.907 9.808-21.907 21.907-21.907 21.907 9.808 21.907 21.907zm251.255-21.907c-12.099 0-21.907 9.808-21.907 21.907s9.808 21.907 21.907 21.907 21.907-9.808 21.907-21.907-9.808-21.907-21.907-21.907z" fill="#958fca"/><path d="m186.02 171.658c5.795 5.815 2.952 15.734-5.044 17.596-11.489 2.676-18.488 14.325-15.455 25.725 2.111 7.934-5.311 15.102-13.166 12.717-11.288-3.428-23.173 3.162-26.247 14.551-2.139 7.926-12.15 10.423-17.761 4.43-8.062-8.612-21.65-8.848-30.006-.521-5.815 5.795-15.734 2.952-17.596-5.044-2.676-11.489-14.325-18.488-25.725-15.455-7.934 2.111-15.102-5.311-12.717-13.167 3.427-11.288-3.162-23.173-14.551-26.247-7.926-2.139-10.423-12.15-4.43-17.761 8.612-8.062 8.848-21.65.521-30.006-5.795-5.815-2.952-15.734 5.044-17.596 11.489-2.676 18.488-14.325 15.455-25.725-2.111-7.934 5.311-15.102 13.166-12.716 11.288 3.427 23.173-3.162 26.247-14.552 2.139-7.926 12.15-10.423 17.761-4.43 8.062 8.612 21.65 8.849 30.006.521 5.815-5.795 15.734-2.952 17.596 5.044 2.676 11.489 14.325 18.488 25.725 15.455 7.934-2.111 15.102 5.311 12.717 13.166-3.428 11.288 3.162 23.173 14.551 26.247 7.926 2.139 10.423 12.15 4.43 17.761-8.611 8.063-8.848 21.651-.521 30.007z" fill="#ffd993"/><path d="m186.02 171.658c5.795 5.815 2.952 15.734-5.044 17.596-6.356 1.48-11.337 5.707-14.006 11.117-36.007-10.217-69.984-29.498-98.329-57.843-17.283-17.283-31.196-36.659-41.739-57.313 2.571-2.679 6.531-4.014 10.607-2.776 11.288 3.427 23.173-3.162 26.247-14.552 2.139-7.926 12.15-10.423 17.761-4.43 8.062 8.612 21.65 8.849 30.006.521 5.815-5.795 15.734-2.952 17.596 5.044 2.676 11.489 14.325 18.488 25.725 15.455 7.934-2.111 15.102 5.311 12.717 13.166-3.427 11.288 3.162 23.173 14.551 26.247 7.926 2.139 10.423 12.15 4.43 17.761-8.612 8.063-8.849 21.651-.522 30.007z" fill="#fff68e"/><path d="m157.339 183.949c-11.12 23.989-35.665 40.488-63.99 39.851-36.509-.821-66.33-30.643-67.15-67.152-.642-28.615 16.204-53.372 40.593-64.326 3.688-1.656 7.759 1.436 7.158 5.434-.576 3.826-.836 7.755-.753 11.76.754 36.626 30.673 66.539 67.298 67.287 3.72.076 7.374-.144 10.94-.637 4.356-.602 7.754 3.794 5.904 7.783z" fill="#c83c50"/><path d="m163.682 155.068c0 10.777-2.48 20.974-6.9 30.053-9.079 4.42-19.277 6.9-30.053 6.9-37.97 0-68.75-30.781-68.75-68.75 0-10.777 2.48-20.975 6.9-30.054 9.079-4.419 19.277-6.899 30.053-6.899 37.97 0 68.75 30.78 68.75 68.75z" fill="#f44545"/><path d="m113.987 122.945-27.985 66.683c-.803 1.914-2.659 3.066-4.612 3.066-.645 0-1.301-.125-1.933-.391-2.546-1.068-3.744-3.999-2.675-6.545l27.985-66.683c1.069-2.546 3.998-3.746 6.545-2.676 2.546 1.07 3.744 4 2.675 6.546zm-37.952 28.696c-9.575 0-17.365-8.688-17.365-19.369 0-10.68 7.79-19.368 17.365-19.368s17.365 8.688 17.365 19.368-7.79 19.369-17.365 19.369zm7.365-19.369c0-5.166-3.304-9.368-7.365-9.368s-7.365 4.202-7.365 9.368 3.304 9.369 7.365 9.369 7.365-4.203 7.365-9.369zm47.795 45.591c0 10.681-7.79 19.369-17.365 19.369s-17.365-8.688-17.365-19.369 7.79-19.369 17.365-19.369 17.365 8.689 17.365 19.369zm-10 0c0-5.166-3.304-9.369-7.365-9.369s-7.365 4.203-7.365 9.369 3.304 9.369 7.365 9.369 7.365-4.203 7.365-9.369z" fill="#fff"/></g></svg>